<mxfile host="65bd71144e">
    <diagram id="CfbTDRyEDqmH9fL3LlmB" name="Page-1">
        <mxGraphModel dx="510" dy="554" grid="1" gridSize="10" guides="1" tooltips="1" connect="1" arrows="1" fold="1" page="1" pageScale="1" pageWidth="827" pageHeight="1169" math="0" shadow="0">
            <root>
                <mxCell id="0"/>
                <mxCell id="1" parent="0"/>
                <mxCell id="2" style="edgeStyle=orthogonalEdgeStyle;rounded=0;orthogonalLoop=1;jettySize=auto;html=1;strokeColor=#F0071E;strokeWidth=2;" parent="1" source="3" target="8" edge="1">
                    <mxGeometry relative="1" as="geometry"/>
                </mxCell>
                <mxCell id="3" value="&lt;b&gt;Classe de erro(tipagem, formatação de dados, etc...)&lt;/b&gt;" style="rounded=0;whiteSpace=wrap;html=1;fillColor=#FFCCE6;fontColor=#000000;strokeColor=#FF6666;" parent="1" vertex="1">
                    <mxGeometry x="196.5" y="150" width="135" height="60" as="geometry"/>
                </mxCell>
                <mxCell id="4" style="edgeStyle=orthogonalEdgeStyle;rounded=0;orthogonalLoop=1;jettySize=auto;html=1;entryX=0.5;entryY=1;entryDx=0;entryDy=0;strokeColor=#F0071E;strokeWidth=2;" parent="1" source="7" target="9" edge="1">
                    <mxGeometry relative="1" as="geometry"/>
                </mxCell>
                <mxCell id="5" style="edgeStyle=orthogonalEdgeStyle;rounded=0;orthogonalLoop=1;jettySize=auto;html=1;exitX=0;exitY=0.5;exitDx=0;exitDy=0;strokeColor=#F0071E;strokeWidth=2;" parent="1" source="7" target="8" edge="1">
                    <mxGeometry relative="1" as="geometry">
                        <mxPoint x="293" y="550.0344827586207" as="sourcePoint"/>
                    </mxGeometry>
                </mxCell>
                <mxCell id="6" style="edgeStyle=orthogonalEdgeStyle;rounded=0;orthogonalLoop=1;jettySize=auto;html=1;entryX=0.5;entryY=1;entryDx=0;entryDy=0;strokeColor=#F0071E;strokeWidth=2;" parent="1" source="7" target="10" edge="1">
                    <mxGeometry relative="1" as="geometry"/>
                </mxCell>
                <mxCell id="7" value="&lt;b&gt;EventEmitter&lt;/b&gt;" style="rounded=0;whiteSpace=wrap;html=1;fillColor=#CCFFCC;fontColor=#000000;strokeColor=#66FF66;" parent="1" vertex="1">
                    <mxGeometry x="347" y="540" width="115" height="60" as="geometry"/>
                </mxCell>
                <mxCell id="8" value="&lt;b&gt;dispatch&lt;/b&gt;" style="ellipse;whiteSpace=wrap;html=1;fillColor=#FFFFCC;fontColor=#000000;strokeColor=#FFFF66;" parent="1" vertex="1">
                    <mxGeometry x="229" y="450" width="70" height="40" as="geometry"/>
                </mxCell>
                <mxCell id="9" value="&lt;b&gt;unsubscribe&lt;/b&gt;" style="ellipse;whiteSpace=wrap;html=1;fillColor=#FFFFCC;fontColor=#000000;strokeColor=#FFFF66;" parent="1" vertex="1">
                    <mxGeometry x="364.5" y="450" width="80" height="40" as="geometry"/>
                </mxCell>
                <mxCell id="10" value="&lt;b&gt;subscribe&lt;/b&gt;" style="ellipse;whiteSpace=wrap;html=1;fillColor=#FFFFCC;fontColor=#000000;strokeColor=#FFFF66;" parent="1" vertex="1">
                    <mxGeometry x="509" y="450" width="80" height="40" as="geometry"/>
                </mxCell>
                <mxCell id="11" style="edgeStyle=orthogonalEdgeStyle;rounded=0;orthogonalLoop=1;jettySize=auto;html=1;fontSize=10;strokeColor=#F0071E;strokeWidth=2;" parent="1" source="12" target="10" edge="1">
                    <mxGeometry relative="1" as="geometry"/>
                </mxCell>
                <mxCell id="12" value="&lt;b&gt;Feedback&lt;br&gt;(notificação, modal, logger, etc...)&lt;/b&gt;" style="rounded=0;whiteSpace=wrap;html=1;fillColor=#CCE5FF;fontColor=#000000;strokeColor=#66B2FF;" parent="1" vertex="1">
                    <mxGeometry x="489" y="150" width="120" height="60" as="geometry"/>
                </mxCell>
                <mxCell id="13" value="Cria e envia um evento" style="text;html=1;strokeColor=none;fillColor=none;align=left;verticalAlign=middle;whiteSpace=wrap;rounded=0;fontSize=11;fontStyle=1" parent="1" vertex="1">
                    <mxGeometry x="137" y="455" width="80" height="30" as="geometry"/>
                </mxCell>
                <mxCell id="14" value="Remove um evento do event emitter" style="text;html=1;strokeColor=none;fillColor=none;align=center;verticalAlign=middle;whiteSpace=wrap;rounded=0;fontSize=11;fontStyle=1" parent="1" vertex="1">
                    <mxGeometry x="359.5" y="407" width="90" height="30" as="geometry"/>
                </mxCell>
                <mxCell id="15" value="Escuta um evento e recebe seus dados" style="text;html=1;strokeColor=none;fillColor=none;align=left;verticalAlign=middle;whiteSpace=wrap;rounded=0;fontSize=11;fontStyle=1" parent="1" vertex="1">
                    <mxGeometry x="600" y="455" width="90" height="30" as="geometry"/>
                </mxCell>
            </root>
        </mxGraphModel>
    </diagram>
</mxfile>
